<?xml version="1.0" encoding="UTF-8"?><svg id="a" xmlns="http://www.w3.org/2000/svg" viewBox="0 0 170.08 25.44"><path d="M83.3,14.95c-.28.27-.32.48-.1.58.27.13.57.21.85.31-.19-.32-.42-.58-.65-.84-.02-.02-.05-.03-.11-.05h0ZM166.71,13.98c-.5.55-.88,1.13-1.42,1.5-.62.43-1.31.15-1.79-.13-.71.31-1.29.66-1.93.81-.97.23-1.82-.2-2.6-.74-.27-.18-.49-.22-.8-.13-4.08,1.27-8.25,2.15-12.47,2.75-4.29.61-8.6,1.15-12.91,1.56-5.61.54-11.25.71-16.88.57-4.71-.11-9.43-.27-14.14-.57-5.32-.33-10.59-1.04-15.79-2.28-.31-.07-.48.01-.65.27-.46.71-.47.7-1.24.34-.39-.19-.79-.37-1.18-.55-.05-.02-.11-.03-.19-.05-1.01,2.03-2.81,2.75-4.87,3.03-.03-.05-.07-.1-.11-.15.11-.09.22-.19.35-.25.79-.45,1.61-.87,2.38-1.35.39-.24.73-.58,1.05-.91.41-.41.65-.87.66-1.5,0-.55.13-1.13.31-1.65.3-.84,1.06-1.09,1.67-.45,1.32,1.41,3.09,1.57,4.8,1.88,4.33.79,8.71,1.22,13.09,1.51,6.89.45,13.78.58,20.67.49,8.12-.09,16.21-.7,24.23-2.01,4.55-.75,9.06-1.73,13.49-3.01.12-.03.25-.06.37-.09.04.03.07.06.11.09-.18.3-.37.6-.55.91.37.49,1.19.7,1.86.35.59-.3,1.11-.73,1.65-1.11.21-.15.39-.34.57-.51.05.01.09.03.13.05-.05.23-.05.49-.15.69-.17.32-.03.46.23.55.55.17,1.09.07,1.43-.37.35-.46.59-1.01.87-1.53.03-.06.05-.13.13-.3.13.19.23.31.3.45.21.4.51.62.97.59.61-.03.82-.32.63-.89-.61-1.79-1.56-3.33-3.33-4.22-.08-.04-.16-.17-.16-.26-.01-.75,0-1.5,0-2.35.31.17.59.26.8.45,1.97,1.77,3.28,3.89,3.35,6.61.01.44-.15.91-.34,1.33-.54,1.18-1.61,1.17-2.52.65-.06-.03-.11-.08-.09-.07"/><path d="M49.24,14.51c.07-.86-.25-1.25-.79-1.18-.29.04-.41.22-.19.43.27.26.59.46.98.75ZM9.78,18.71c.06.03.13.05.18.09,3.23,2.39,6.9,3.72,10.85,4.31,5.53.83,11.03.61,16.43-.95,1.55-.45,3.06-1.07,4.54-1.73.69-.31,1.32-.84,1.87-1.38.65-.64.68-1.43.23-2.19-.42-.72-.42-1.47-.01-2.25.16.12.32.23.47.35.87.62,1.74.5,2.35-.38.33-.47.61-.99.87-1.51.23-.48.6-.8,1.05-1.06.97-.55,2.03-.83,3.12-1.04.11-.02.23-.04.34-.07.03,0,.05-.03.16-.13-.83-.24-1.6-.48-2.37-.68-.13-.03-.29.07-.43.12-.09.03-.18.09-.27.1-.55,0-1.1,0-1.64,0-.23-.88.16-1.67.96-1.95.66-.24,1.35-.28,2.01-.03.61.23,1.18.54,1.77.81,1.69.76,3.37,1.52,5.09,2.3-.43.27-.89.59-1.38.85-.16.08-.42-.03-.63-.07-1.56-.33-3.09-.21-4.59.31-.37.13-.53.32-.54.75-.02.67-.11,1.36-.27,2.01-.19.74-.59.94-1.31.72-.52-.16-1.01-.41-1.54-.64-.36.97-1.05,1.61-2.19,1.65-.04.33-.05.63-.11.93-.24,1.31-.95,2.35-1.97,3.18-1.47,1.21-3.19,1.94-4.99,2.49-5.15,1.59-10.4,2.21-15.77,1.57-2.83-.34-5.55-1.05-8.05-2.49-1.57-.91-2.94-2.07-4.06-3.5-.11-.13-.17-.29-.26-.44.03-.02.05-.04.08-.06"/><path d="M6.54,16.03s.03-.05.05-.07c-.28-.3-.55-.61-.85-.89-.06-.06-.23,0-.35,0,0,.15-.04.39.03.43.35.2.74.35,1.11.52h0ZM23.44,13.13c.04.15.09.25.07.31-.17.43.1.6.41.76.47.23.97.29,1.44.11,1.1-.43,2.18-.91,3.26-1.46-.87-.36-1.72-.85-2.61-.69-.66.12-1.27.03-1.9.07-.09-.98.39-1.65,1.31-1.75.52-.05,1.07,0,1.58.12.49.11.96.33,1.42.54,1.33.62,2.73.87,4.18.89h1.35c-.09.57-.35.97-.69,1.33-.06.06-.19.11-.27.1-1.65-.21-3.11.35-4.55,1.04-.51.25-1,.53-1.51.76s-1.05.43-1.58.61c-.93.29-1.74.05-2.45-.6-.08-.08-.17-.15-.27-.25-1.07.8-2.23,1.43-3.48,1.87-2.41.85-4.89,1.05-7.42.91-1.25-.07-2.49-.19-3.67-.63-.09-.03-.23.04-.33.1-.07.04-.1.14-.14.21-.49.85-.48.85-1.34.4-.39-.21-.81-.38-1.26-.58-.99,2.11-2.81,2.81-4.89,3.09-.03-.05-.07-.1-.1-.15.11-.09.23-.19.35-.25.81-.46,1.63-.88,2.41-1.37.4-.25.74-.6,1.07-.95.39-.4.61-.87.61-1.48,0-.49.12-1.01.27-1.49.09-.27.3-.53.51-.73.21-.19.49-.25.79-.03,2.93,2.07,6.23,2.47,9.68,2.04,1.01-.13,2.01-.32,2.99-.55,1.71-.41,3.37-.99,4.76-2.29"/><path d="M67.38,15.11c.62.17,1.12.24,1.56-.11.27-.21.32-.52.21-.88-.71.07-1.2.46-1.77.99ZM73.76,16.37c-.58,1.52-1.29,2.06-2.49,1.93-1.06-.11-1.68-.9-1.91-2.49-.11.14-.17.24-.25.32-.37.39-.71.87-1.15,1.16-.85.57-1.73.11-1.89-.9-.13-.83.21-1.45.85-1.92.51-.37,1.06-.71,1.62-1.01.52-.27.73-.66.79-1.23.03-.33.27-.64.41-.96.05,0,.09.01.14.02.04.23.13.45.12.68-.02.65-.07,1.3-.12,1.95,0,.11-.03.23-.04.35-.1,1.76.97,2.22,2.37,1.97.83-.15,1.27-.85,1.15-1.82-.13-.96-.33-1.91-.51-2.86-.14-.75.17-1.38.5-2.14.29,1.21.53,2.31.83,3.39.19.65.45,1.28.75,1.89.19.4.57.65,1.05.69.56.04.87-.23.76-.77-.15-.79-.36-1.57-.6-2.35-.19-.63-.45-1.25-.7-1.87-.18-.45-.17-.87,0-1.31.12-.32.23-.65.47-1.01.42,1.27.89,2.53,1.25,3.81.37,1.3.53,2.64.25,3.99-.15.77-.47,1.42-1.33,1.59-.94.19-1.7-.15-2.24-.97-.02-.03-.05-.07-.11-.14"/><path d="M58.56,2.59c.48.65.95,1.25,1.37,1.87.09.13.1.4.03.56-.21.51-.17.99-.06,1.52.41,1.89.81,3.79,1.15,5.7.2,1.1-.11,2.13-.68,3.07-.06.1-.12.2-.19.29-.57.71-.93,1.49-.97,2.44-.05,1.1-.53,2.1-1.12,3.02-.79,1.24-1.89,1.87-3.39,1.55-.79-.17-1.57-.4-2.35-.61-.05-.01-.09-.06-.23-.16.22-.03.33-.07.45-.07,2.38.03,4.15-1.09,5.56-2.91.11-.14.21-.28.29-.43.52-.86.57-1.39-.16-2.07-.77-.71-.5-1.35-.19-2,.5.07.98.19,1.45.17.69-.03.99-.43.85-1.09-.49-2.37-.98-4.73-1.5-7.09-.11-.49-.33-.96-.57-1.41-.42-.82-.23-1.56.25-2.37"/><path d="M34.23,14.38c.62.07,1.13.18,1.63.15.61-.04.91-.47.79-1.05-.51-2.42-1.05-4.83-1.6-7.25-.1-.43-.29-.85-.49-1.25-.41-.83-.23-1.59.26-2.39.5.65,1,1.27,1.47,1.91.07.09.02.31-.04.43-.28.53-.27,1.05-.13,1.63.43,1.8.81,3.61,1.17,5.43.24,1.21-.04,2.33-.7,3.36-.05.07-.09.15-.15.21-.62.74-.96,1.55-1.03,2.55-.09,1.17-.61,2.23-1.38,3.13-.69.81-1.56,1.23-2.63,1.2-1-.02-1.98-.16-2.94-.59.12-.03.24-.08.36-.08,2.39.06,4.14-1.1,5.57-2.89.12-.15.22-.31.32-.47.5-.84.54-1.37-.15-2.03-.64-.61-.6-1.2-.31-1.89.02-.05.04-.11.06-.16,0-.01.02-.02-.05.05"/><path d="M30.5,2.85c-.39,1.43-1.11,2.51-2.31,3.27.35-.63.83-1.2.94-2.03-7.12,1.49-13.89,3.7-20.19,7.42.17-.66.29-1.21.89-1.58,2.52-1.55,5.23-2.68,8-3.69,3.91-1.43,7.9-2.61,12.02-3.31.19-.03.39-.05.66-.07"/><path d="M53.29,5.48c.31-.64.62-1.28.93-1.92-.04-.04-.09-.08-.13-.12-4.55.93-8.75,2.75-12.87,5.07.19-.67.32-1.21.88-1.57,3.31-2.15,6.95-3.49,10.8-4.31.83-.18,1.67-.32,2.51-.47.08.91-1.11,2.71-2.13,3.33"/><path d="M77.88,2.65c.24,1.01.5,2.01.71,3.03.55,2.59,1.11,5.18,1.63,7.77.18.87-.09,1.72-.34,2.57-.19-.85-.39-1.69-.57-2.53-.66-2.93-1.33-5.87-1.97-8.81-.16-.73.01-1.41.54-2.03"/><path d="M64.03,16c-.85-3.79-1.72-7.59-2.55-11.39-.15-.69,0-1.37.51-2.05.15.59.29,1.07.4,1.57.67,3.11,1.35,6.22,1.99,9.33.18.87-.08,1.71-.35,2.54"/><path d="M40.24,16.03c-.47-2.11-.93-4.21-1.39-6.31-.37-1.65-.74-3.31-1.09-4.96-.15-.74-.05-1.45.44-2.22.27,1.11.53,2.09.75,3.09.56,2.51,1.1,5.03,1.65,7.55.21.99-.03,1.92-.36,2.85"/><path d="M11.09,6.23c.76-.49,1.43-.91,2.09-1.36.26-.18.47-.43.67-.67.31-.35.26-.59-.21-.65-.53-.07-1.09-.05-1.63,0-.33.03-.65.21-1.11.37.35-.59.63-1.1.94-1.59.09-.13.26-.25.41-.3,1.06-.32,2.09-.27,3.06.31.23.14.33.33.23.58-.17.41-.3.86-.57,1.21-.97,1.23-2.38,1.67-3.89,2.11"/><path d="M158.31,7.44c.13-.27.21-.44.29-.61.31-.59.58-1.21,1.36-1.34,1.01-.17,1.97-.09,2.82.53.09.07.17.29.13.39-.17.45-.31.95-.61,1.32-.97,1.2-2.37,1.63-3.81,1.96.34-.19.71-.33,1.01-.56.58-.43,1.15-.88,1.68-1.37.37-.34.31-.53-.19-.67-.74-.22-1.46-.11-2.17.15-.13.05-.26.1-.49.19"/><path d="M69.32,6.65s-.07-.03-.11-.05c-.15.19-.31.37-.49.59.23.1.39.17.59.25,0,0,0-.79,0-.79ZM69.96,6.77s-.09.05-.14.07c0,.21-.08.55.01.61.21.13.51.13.78.18.03-.06.05-.11.08-.17-.25-.23-.49-.47-.73-.7h0ZM64.6,10.9c1.58-.74,3.19-1.37,4.55-2.53-.1-.09-.14-.13-.19-.15-.59-.39-.65-.59-.47-1.27.07-.26.01-.55.07-.82.03-.14.15-.36.25-.37.31-.04.69-.1.92.04.43.27.82.63,1.15,1.02.31.36.19.79-.03,1.18-.22.37-.57.45-.98.42-.12,0-.32.01-.37.09-.81,1.35-2.14,1.85-3.56,2.21-.43.11-.89.13-1.34.19"/><path d="M148.39,22.53c.19-.07.38-.11.55-.2,1.31-.71,2.61-1.44,3.91-2.16.79-.44,1.58-.91,2.39-1.32.47-.24.99-.32,1.47.06.25.19.46.05.67-.1.35-.27.67-.58,1.18-.26.23.15.37-.08.48-.29.13-.23.31-.44.53-.62-.02.59-.15,1.13-.51,1.57-.25.32-.59.35-.94.19-.28-.13-.5-.13-.73.1-.41.4-.85.54-1.38.11-.15-.12-.49-.13-.69-.05-.85.37-1.67.79-2.51,1.19-1.31.61-2.63,1.21-3.94,1.81-.13.06-.29.07-.44.11-.01-.05-.03-.09-.04-.14"/><path d="M6.45,9.03c0-.07.02-.15,0-.2-.07-.14-.17-.27-.25-.4-.14.1-.37.17-.41.3-.11.39-.2.79-.22,1.19-.03.76,0,1.52-.05,2.29-.33-.85-.58-1.73-1.41-2.03-.32.26-.51.53-.75.6-.56.17-.94-.1-1.02-.63-.11-.7.14-1.1.77-1.15.73-.06,1.35.18,1.77.79.14.2.25.41.44.74,0-.67-.03-1.23,0-1.77.02-.37.08-.75.2-1.1.15-.43.53-.6.95-.49.42.11.54.45.47.81-.07.37-.21.73-.33,1.09-.05-.01-.11-.03-.17-.04"/><path d="M82.2,8.69c-.23.56-.57.73-1.08.61-.35-.09-.55-.45-.51-.95.03-.49.3-.74.82-.78,1.03-.07,1.65.47,2.11,1.37,0-.15.01-.29.02-.44.02-.62,0-1.25.08-1.86.08-.63.42-.93.91-.91.4.01.61.23.65.61.04.42-.11.85-.48,1.25,0-.11.01-.21-.03-.27-.07-.11-.15-.29-.24-.3-.13,0-.34.09-.37.19-.11.29-.19.61-.19.93-.03.85,0,1.71-.07,2.57-.39-.8-.58-1.72-1.61-2.02"/><path d="M22.51,18.18c.54.34,1.03.65,1.57.98-.32.51-.62.99-.94,1.5-.34-.22-.64-.41-.97-.63-.22.33-.42.65-.65,1-.51-.33-.99-.65-1.51-.99.29-.49.57-.97.87-1.48.35.21.67.4,1.02.61.2-.33.4-.65.61-.99"/><path d="M31.64,8.81c-.32.33-.51.83-1.08.67-.33-.09-.49-.34-.54-.66-.06-.41-.09-.81.27-1.22.1.46.19.88.69.79.47-.09.47-.52.54-.89.03-.15.1-.3.15-.47.09.06.13.07.13.09.07.32.17.66.58.62.39-.04.45-.4.53-.71.05-.2.11-.39.25-.57.22.67.26,1.32.05,1.96-.21.64-.73.76-1.57.39"/><path d="M73.68,7.84c-.66.74-1.01.85-1.39.48-.35-.35-.33-1.25.05-1.57.1.35.19.76.67.69.49-.07.48-.51.57-.87.04-.17.11-.33.18-.54.07.07.1.09.1.11.08.33.13.7.59.66s.48-.43.55-.77c.03-.19.09-.37.19-.54.31.75.33,1.49-.04,2.2-.25.49-.76.51-1.46.13"/><path d="M56.1,6.43c.2.35.18.79.66.75.46-.03.51-.44.57-.81.03-.15.09-.31.2-.45.23.73.26,1.45-.07,2.13-.24.49-.77.53-1.41.15-.39.35-.69,1.01-1.37.51-.35-.25-.37-1.09-.07-1.56.02.01.06.02.07.03.07.32.17.63.58.63.33,0,.57-.31.66-.75.04-.22.12-.43.19-.65"/><path d="M45.7,22.45c.33-.39.57-.85.95-1.11,1.58-1.04,3.2-2.02,4.85-2.97-.03.57-.31.96-.74,1.22-1.64.99-3.29,1.95-4.93,2.92l-.13-.07"/><path d="M16.01,9.59c-.19.67-.37,1.33-.56,1.99-.03.11-.07.22-.09.33-.06.37.1.62.41.63.38,0,.45-.24.44-.55,0-.11-.01-.23-.02-.36.36.31.45,1.06.21,1.64-.17.41-.5.59-.98.55-.53-.05-.87-.35-.88-.89,0-.37.03-.75.13-1.11.24-.85.79-1.54,1.34-2.23"/><path d="M42.51,1.85c-.17.6-.34,1.2-.51,1.81-.06.21-.12.42-.14.63-.03.31.13.51.45.51s.41-.23.42-.5c0-.14-.02-.27-.03-.45.41.5.43,1.49.07,1.92-.25.3-.59.35-.95.29-.35-.05-.65-.22-.73-.59-.06-.29-.09-.61-.05-.89.16-1.06.83-1.87,1.35-2.76.03.01.07.03.1.04"/><path d="M63.68,18.41c-.19.68-.38,1.35-.57,2.03-.05.17-.11.33-.11.51-.02.27.05.51.37.55.31.03.45-.16.49-.43.03-.21,0-.42,0-.67.5.5.53,1.59.07,2.04-.32.31-.71.3-1.1.18-.38-.11-.61-.4-.61-.76,0-.47.11-.94.19-1.4.03-.15.13-.29.21-.43.32-.55.64-1.09.97-1.64.03,0,.07.01.1.02"/><path d="M66.63,1.29c-.17.64-.33,1.28-.49,1.92-.04.15-.09.31-.1.47-.02.28.05.55.39.57.31.02.47-.19.48-.49v-.45c.39.55.41,1.39.08,1.87-.25.37-.63.38-1.01.33-.39-.05-.65-.29-.7-.67-.05-.37-.06-.76.02-1.11.21-.93.79-1.67,1.35-2.43"/><path d="M166.63,17.55c-.11.57-.38.95-.81,1.2-1.63.97-3.27,1.93-4.9,2.89-.02.01-.05,0-.2,0,.35-.43.61-.88.98-1.16,1.51-1.15,3.19-2.03,4.93-2.93"/><path d="M65.96,23.01c.31-.36.55-.81.92-1.06,1.58-1.04,3.2-2.02,4.85-2.97-.02.59-.33.99-.77,1.25-1.63.96-3.28,1.89-4.92,2.84-.03-.02-.05-.04-.08-.05"/><path d="M85.78,19.3c-.09.51-.39.88-.83,1.14-1.63.95-3.25,1.88-4.96,2.86.31-.53.61-1.03,1.09-1.33,1.52-.95,3.06-1.86,4.59-2.79.03.04.07.08.1.12"/><path d="M2.63,23.69c.33-.37.59-.85.99-1.11,1.56-1.03,3.16-1.99,4.79-2.92-.07.6-.39,1.01-.86,1.29-1.61.94-3.23,1.86-4.85,2.79-.03-.01-.05-.03-.07-.05"/><path d="M73.71,5.29c-.13-.74-.19-1.49-.39-2.21-.13-.49-.46-.92-.69-1.39-.09-.19-.19-.41-.2-.61-.02-.35.03-.71.05-1.09,1.33.91,1.93,3.57,1.23,5.29"/><path d="M170.08,16.59s-.11.12-.17.19c-.32.33-.63.67-.93.98-.46-.47-.88-.91-1.28-1.31.34-.34.75-.74,1.16-1.15.38.4.78.83,1.22,1.29"/><path d="M31.25,18.04c-.65.62-1.3,1.02-2.12,1.07-.72.05-1.02-.42-.67-1.06.15-.27.38-.5.59-.74.12-.14.27-.25.41-.37,0-.05-.01-.09-.02-.14-.39-.03-.77-.07-1.15-.09.13-.75,1.36-.92,1.93-.35-.34.42-.71.83-1.02,1.28-.13.19-.14.45-.21.69.25.06.52.21.75.17.47-.08.93-.27,1.51-.44"/><path d="M52.98,16.27c.39-.75,1.11-.91,1.89-.37-.22.28-.44.56-.65.84-.15.19-.32.38-.43.6-.08.16-.15.42-.07.54.09.13.35.22.52.2.39-.05.76-.17,1.13-.28.16-.05.31-.12.49-.15-.6.62-1.29,1.05-2.19,1.03-.63-.01-.89-.46-.58-1.01.15-.27.39-.5.61-.73.15-.16.31-.29.47-.43,0-.05-.01-.09-.02-.14-.39-.03-.78-.07-1.18-.1"/><path d="M45.65,13.67c-.1-.76-.11-1.45-.29-2.09-.17-.61-.52-1.17-.79-1.77-.06-.14-.14-.29-.15-.43-.02-.4,0-.8,0-1.23,1.51,1.37,1.83,3.32,1.23,5.51"/><path d="M37.29,17.65c.41-.43.77-.81,1.11-1.16.43.44.86.87,1.27,1.28-.33.33-.75.73-1.18,1.15-.37-.39-.77-.81-1.19-1.27"/></svg>