<svg xmlns="http://www.w3.org/2000/svg" viewBox="0 0 272 24" aria-hidden="true"><g fill="currentColor"><path d="M24.36,11.74c-.72-.57-1.57-1.06-2.55-1.45-.98-.4-2.08-.72-3.29-.96-.53-.09-1.04-.2-1.52-.35-.48-.14-.91-.32-1.29-.53s-.67-.45-.89-.71c-.22-.26-.33-.58-.33-.96,0-.42.13-.78.4-1.07.26-.3.63-.53,1.11-.69.47-.17,1.04-.25,1.7-.25s1.26.1,1.87.3c.61.2,1.18.48,1.72.86.54.37,1.04.85,1.5,1.42l3.47-3.34c-.55-.84-1.22-1.55-2-2.15-.78-.6-1.72-1.05-2.81-1.37-1.09-.32-2.4-.48-3.92-.48-1.15,0-2.25.17-3.31.51-1.06.34-1.99.83-2.79,1.45s-1.44,1.38-1.92,2.25-.71,1.82-.71,2.86c0,.97.15,1.85.46,2.63.31.78.78,1.48,1.4,2.08.63.61,1.42,1.12,2.36,1.54.95.42,2.06.77,3.34,1.06.46.09.91.19,1.36.31.44.12.86.26,1.26.43.4.17.74.35,1.02.55.29.2.51.43.68.69.16.26.25.56.25.89,0,.44-.13.81-.4,1.11-.26.3-.64.52-1.12.68-.48.15-1.02.23-1.62.23-1.19,0-2.34-.25-3.45-.76s-2.22-1.5-3.32-2.98l-3.41,3.87c.75.95,1.6,1.77,2.55,2.46.95.69,2.03,1.22,3.26,1.59,1.22.36,2.6.55,4.12.55,1.76,0,3.32-.29,4.68-.88,1.36-.58,2.42-1.43,3.21-2.55.78-1.11,1.17-2.47,1.17-4.08,0-1.04-.19-1.95-.58-2.73-.39-.78-.94-1.46-1.65-2.03Z"/><polygon points="34.72 .53 29.1 .53 29.1 23.67 45.03 23.67 45.03 18.71 34.72 18.71 34.72 .53"/><path d="M55.69.53l-9.16,23.14h5.55l1.65-4.43h8.47l1.65,4.43h5.69L60.45.53h-4.76ZM55.31,15.01l1.13-3.04c.18-.55.36-1.09.56-1.6s.38-1.04.55-1.55c.15-.46.3-.93.44-1.4.14.46.28.92.43,1.4.18.56.35,1.11.53,1.64.18.53.35,1.02.53,1.49l1.14,3.07h-5.32Z"/><path d="M82.69,11.32l-6.63-10.79h-5.02v23.14h5.45v-7.21c0-2.14-.05-3.98-.15-5.54-.02-.38-.07-.75-.1-1.12l5.24,8.25h2.18l5.39-8.37c-.04.48-.09.95-.12,1.43-.1,1.59-.15,3.37-.15,5.36v7.21h5.45V.53h-4.83l-6.73,10.79Z"/><path d="M112.52,7.09c.58-.58,1.27-1.04,2.05-1.36.78-.32,1.61-.48,2.5-.48.7,0,1.37.1,1.98.3.62.2,1.18.48,1.7.84.52.36,1.01.79,1.47,1.27l3.44-3.93c-.66-.77-1.45-1.44-2.36-2-.91-.56-1.9-.99-2.96-1.27s-2.14-.43-3.24-.43c-1.76,0-3.39.3-4.88.89-1.49.6-2.78,1.43-3.87,2.5s-1.95,2.33-2.56,3.79c-.62,1.45-.93,3.04-.93,4.76s.29,3.38.88,4.84c.58,1.47,1.42,2.73,2.5,3.8,1.08,1.07,2.35,1.9,3.82,2.48,1.47.58,3.07.88,4.81.88,1.12,0,2.24-.14,3.36-.41,1.11-.28,2.13-.66,3.04-1.14.91-.49,1.65-1.04,2.2-1.65l-2.71-4.3c-.42.44-.9.83-1.44,1.17-.54.34-1.13.61-1.77.81-.64.2-1.31.3-2.02.3-1.04,0-1.98-.15-2.83-.46-.85-.31-1.57-.76-2.17-1.36s-1.06-1.31-1.39-2.13c-.33-.83-.5-1.75-.5-2.76s.17-1.97.5-2.81c.33-.84.79-1.55,1.37-2.13Z"/><polygon points="138.57 .5 135.96 .5 135.96 23.64 141.58 23.64 141.58 14.78 150.54 14.78 150.54 10.08 141.58 10.08 141.58 5.45 151.9 5.45 151.9 .5 141.58 .5 138.57 .5"/><path d="M178.42,6.21c0,.9,0,1.74.02,2.51.01.77.03,1.49.07,2.15.03.66.08,1.31.13,1.95s.12,1.29.18,1.95c.02.15.04.33.06.48L168.04.5h-5.02v23.14h5.46v-7.74c0-.55,0-1.05-.02-1.5-.01-.45-.03-.91-.05-1.37-.02-.46-.06-.98-.12-1.55-.06-.57-.12-1.23-.2-1.97-.01-.1-.02-.22-.03-.32l10.73,14.45h5.09V.5h-5.45v5.72Z"/><path d="M194.53.5l-9.16,23.14h5.55l1.65-4.43h8.47l1.65,4.43h5.69L199.29.5h-4.76ZM194.16,14.97l1.13-3.04c.18-.55.36-1.09.56-1.6s.38-1.04.55-1.55c.15-.46.29-.93.44-1.4.14.46.28.92.43,1.4.18.56.35,1.11.53,1.64.18.53.35,1.02.53,1.49l1.14,3.07h-5.32Z"/><path d="M225.29,6.21c0,.9,0,1.74.02,2.51.01.77.03,1.49.07,2.15.03.66.08,1.31.13,1.95s.12,1.29.18,1.95c.02.15.04.33.06.48L214.91.5h-5.02v23.14h5.45v-7.74c0-.55,0-1.05-.02-1.5-.01-.45-.03-.91-.05-1.37-.02-.46-.06-.98-.12-1.55-.06-.57-.12-1.23-.2-1.97-.01-.1-.02-.22-.03-.32l10.73,14.45h5.09V.5h-5.45v5.72Z"/><path d="M240.4,7.09c.58-.58,1.27-1.04,2.05-1.36.78-.32,1.61-.48,2.5-.48.7,0,1.37.1,1.98.3.62.2,1.18.48,1.7.84.52.36,1.01.79,1.47,1.27l3.44-3.93c-.66-.77-1.45-1.44-2.36-2-.91-.56-1.9-.99-2.96-1.27-1.06-.29-2.14-.43-3.24-.43-1.76,0-3.39.3-4.88.89-1.49.6-2.78,1.43-3.87,2.5s-1.95,2.33-2.56,3.79c-.62,1.45-.93,3.04-.93,4.76s.29,3.38.88,4.84c.58,1.47,1.42,2.73,2.5,3.8,1.08,1.07,2.35,1.9,3.82,2.48,1.46.58,3.07.88,4.81.88,1.12,0,2.24-.14,3.35-.41,1.11-.28,2.13-.66,3.04-1.14.91-.49,1.65-1.04,2.2-1.65l-2.71-4.3c-.42.44-.9.83-1.44,1.17-.54.34-1.13.61-1.77.81-.64.2-1.31.3-2.02.3-1.04,0-1.98-.15-2.83-.46-.85-.31-1.57-.76-2.17-1.36-.59-.59-1.06-1.31-1.39-2.13s-.5-1.75-.5-2.76.16-1.97.5-2.81.79-1.55,1.37-2.13Z"/><polygon points="260.99 18.84 260.99 14.15 270.18 14.15 270.18 9.59 260.99 9.59 260.99 5.29 271.67 5.29 271.67 .5 255.54 .5 255.54 23.64 272 23.64 272 18.84 260.99 18.84"/><polygon points="5.62 18.94 5.62 5.26 5.62 .53 0 .53 0 5.26 0 18.94 0 23.67 5.62 23.67 5.62 18.94"/><polygon points="102.87 18.94 102.87 5.26 102.87 .53 97.25 .53 97.25 5.26 97.25 18.94 97.25 23.67 102.87 23.67 102.87 18.94"/><polygon points="160.02 18.91 160.02 5.22 160.02 .5 154.4 .5 154.4 5.22 154.4 18.91 154.4 23.64 160.02 23.64 160.02 18.91"/></g></svg>